<svg width="320" height="80" viewBox="0 0 320 80" xmlns="http://www.w3.org/2000/svg">
  <defs>
    <style>
      .font-main { font-family: system-ui, -apple-system, 'Segoe UI', Roboto, sans-serif; font-weight: 900; font-size: 36px; fill: #0D0D0D; }
      .font-tld { font-family: system-ui, -apple-system, 'Segoe UI', Roboto, sans-serif; font-weight: 900; font-size: 24px; fill: #FFFFFF; }
    </style>
  </defs>

  <!-- Document icon shadow -->
  <rect x="14" y="14" width="44" height="52" rx="4" fill="#0D0D0D" />

  <!-- Document body -->
  <rect x="10" y="10" width="44" height="52" rx="4" fill="#FDF8F3" stroke="#0D0D0D" stroke-width="3" />

  <!-- Blue header bar -->
  <path d="M 10 14 C 10 12 12 10 14 10 L 50 10 C 52 10 54 12 54 14 L 54 22 L 10 22 Z" fill="#3b82f6" stroke="#0D0D0D" stroke-width="3" />

  <!-- Window dots -->
  <circle cx="18" cy="16" r="2" fill="#0D0D0D" />
  <circle cx="24" cy="16" r="2" fill="#0D0D0D" />

  <!-- Text lines -->
  <rect x="18" y="32" width="28" height="3" fill="#0D0D0D" />
  <rect x="18" y="40" width="20" height="3" fill="#0D0D0D" />
  <rect x="18" y="48" width="24" height="3" fill="#0D0D0D" />

  <!-- Brand text -->
  <text x="70" y="50" class="font-main">clickfolio</text>

  <!-- .me badge shadow -->
  <rect x="238" y="25" width="70" height="36" rx="4" transform="rotate(-3 238 25)" fill="#0D0D0D" />

  <!-- .me badge -->
  <rect x="234" y="21" width="70" height="36" rx="4" transform="rotate(-3 234 21)" fill="#3b82f6" stroke="#0D0D0D" stroke-width="3" />
  <text x="242" y="46" class="font-tld" transform="rotate(-3 242 46)">.me</text>
</svg>
